<svg xmlns="http://www.w3.org/2000/svg" xmlns:xlink="http://www.w3.org/1999/xlink" width="68.422" height="68.422" viewBox="0 0 68.422 68.422">
  <defs>
    <filter id="Path_31" x="0" y="0" width="68.422" height="68.422" filterUnits="userSpaceOnUse">
      <feOffset dy="3" input="SourceAlpha"/>
      <feGaussianBlur stdDeviation="3" result="blur"/>
      <feFlood flood-opacity="0.161"/>
      <feComposite operator="in" in2="blur"/>
      <feComposite in="SourceGraphic"/>
    </filter>
  </defs>
  <g id="ic_facebook" transform="translate(9 6)">
    <g transform="matrix(1, 0, 0, 1, -9, -6)" filter="url(#Path_31)">
      <path id="Path_31-2" data-name="Path 31" d="M291.556,130.536h0a25.211,25.211,0,0,1-25.211-25.211h0a25.211,25.211,0,0,1,25.211-25.211h0a25.212,25.212,0,0,1,25.211,25.211h0A25.211,25.211,0,0,1,291.556,130.536Z" transform="translate(-257.35 -74.11)" fill="#3e5c9a"/>
    </g>
    <path id="Path_32" data-name="Path 32" d="M295.4,124.777h6.137V109.41h4.282l.456-5.146h-4.738v-2.931c0-1.213.243-1.693,1.417-1.693h3.322V94.3h-4.25c-4.567,0-6.626,2.012-6.626,5.861v4.1H292.2v5.21H295.4Z" transform="translate(-274.026 -84.328)" fill="#fff"/>
  </g>
</svg>
