<svg xmlns="http://www.w3.org/2000/svg" xmlns:xlink="http://www.w3.org/1999/xlink" width="67.498" height="67.498" viewBox="0 0 67.498 67.498">
  <defs>
    <filter id="Path_29" x="0" y="0" width="67.498" height="67.498" filterUnits="userSpaceOnUse">
      <feOffset dy="3" input="SourceAlpha"/>
      <feGaussianBlur stdDeviation="3" result="blur"/>
      <feFlood flood-opacity="0.161"/>
      <feComposite operator="in" in2="blur"/>
      <feComposite in="SourceGraphic"/>
    </filter>
  </defs>
  <g id="ic_google" transform="translate(9 6)">
    <g transform="matrix(1, 0, 0, 1, -9, -6)" filter="url(#Path_29)">
      <path id="Path_29-2" data-name="Path 29" d="M187.249,129.612h0A24.749,24.749,0,0,1,162.5,104.863h0a24.749,24.749,0,0,1,24.749-24.749h0A24.749,24.749,0,0,1,212,104.863h0A24.749,24.749,0,0,1,187.249,129.612Z" transform="translate(-153.5 -74.11)" fill="#df4b38"/>
    </g>
    <g id="Group_2" data-name="Group 2" transform="translate(8.335 8.396)">
      <path id="Path_30" data-name="Path 30" d="M205.847,107.652H190.638l.018,4.356H200.91c-1.212,5.3-4.956,8.556-9.979,8.556a11.931,11.931,0,1,1,8.111-20.677l3.365-2.9a16.352,16.352,0,1,0-11.476,28c8.674,0,14.94-6.615,14.94-15.646Z" transform="translate(-174.578 -92.28)" fill="#fff"/>
    </g>
  </g>
</svg>
