<svg xmlns="http://www.w3.org/2000/svg" width="360" height="166.258" viewBox="0 0 360 166.258">
  <g id="ic_home_screen_bg_bottom" transform="translate(360 166.258) rotate(180)" opacity="0.1">
    <path id="Path_206" data-name="Path 206" d="M526.634,225.384l-2.487,2.487a.879.879,0,0,0,0,1.243l2.487,2.487,2.487-2.487a.879.879,0,0,0,0-1.243Z" transform="translate(-191.22 -82.265)" fill="#919d6a"/>
    <path id="Path_207" data-name="Path 207" d="M526,169.038l-3.481,3.482a1.231,1.231,0,0,0,0,1.741L526,177.741l3.481-3.481a1.231,1.231,0,0,0,0-1.741Z" transform="translate(-190.589 -61.699)" fill="#919d6a"/>
    <path id="Path_208" data-name="Path 208" d="M525.372,112.692l-4.476,4.476a1.582,1.582,0,0,0,0,2.238l4.476,4.476,4.476-4.476a1.583,1.583,0,0,0,0-2.238Z" transform="translate(-189.958 -41.133)" fill="#919d6a"/>
    <path id="Path_209" data-name="Path 209" d="M524.741,56.346l-5.47,5.471a1.935,1.935,0,0,0,0,2.736l5.47,5.471,5.471-5.471a1.934,1.934,0,0,0,0-2.736Z" transform="translate(-189.327 -20.566)" fill="#919d6a"/>
    <path id="Path_210" data-name="Path 210" d="M524.11,0l-6.465,6.466a2.285,2.285,0,0,0,0,3.232l6.465,6.466L530.576,9.7a2.286,2.286,0,0,0,0-3.232Z" transform="translate(-188.696)" fill="#919d6a"/>
    <path id="Path_211" data-name="Path 211" d="M472.246,225.384l-2.487,2.487a.879.879,0,0,0,0,1.243l2.487,2.487,2.487-2.487a.879.879,0,0,0,0-1.243Z" transform="translate(-171.368 -82.265)" fill="#919d6a"/>
    <path id="Path_212" data-name="Path 212" d="M471.615,169.038l-3.481,3.482a1.231,1.231,0,0,0,0,1.741l3.481,3.481,3.481-3.481a1.231,1.231,0,0,0,0-1.741Z" transform="translate(-170.737 -61.699)" fill="#919d6a"/>
    <path id="Path_213" data-name="Path 213" d="M470.984,112.692l-4.476,4.476a1.582,1.582,0,0,0,0,2.238l4.476,4.476,4.476-4.476a1.582,1.582,0,0,0,0-2.238Z" transform="translate(-170.106 -41.133)" fill="#919d6a"/>
    <path id="Path_214" data-name="Path 214" d="M470.353,56.346l-5.471,5.471a1.935,1.935,0,0,0,0,2.736l5.471,5.471,5.471-5.471a1.935,1.935,0,0,0,0-2.736Z" transform="translate(-169.475 -20.566)" fill="#919d6a"/>
    <path id="Path_215" data-name="Path 215" d="M469.722,0l-6.466,6.466a2.286,2.286,0,0,0,0,3.232l6.466,6.466L476.188,9.7a2.286,2.286,0,0,0,0-3.232Z" transform="translate(-168.844)" fill="#919d6a"/>
    <path id="Path_216" data-name="Path 216" d="M417.858,225.384l-2.487,2.487a.879.879,0,0,0,0,1.243l2.487,2.487,2.487-2.487a.879.879,0,0,0,0-1.243Z" transform="translate(-151.516 -82.265)" fill="#919d6a"/>
    <path id="Path_217" data-name="Path 217" d="M417.227,169.038h0l-3.482,3.482a1.232,1.232,0,0,0,0,1.741l3.482,3.481,3.481-3.481a1.231,1.231,0,0,0,0-1.741Z" transform="translate(-150.886 -61.699)" fill="#919d6a"/>
    <path id="Path_218" data-name="Path 218" d="M416.6,112.692l-4.476,4.476a1.582,1.582,0,0,0,0,2.238l4.476,4.476,4.476-4.476a1.583,1.583,0,0,0,0-2.238Z" transform="translate(-150.255 -41.133)" fill="#919d6a"/>
    <path id="Path_219" data-name="Path 219" d="M415.965,56.346l-5.471,5.471a1.934,1.934,0,0,0,0,2.736l5.471,5.471,5.47-5.471a1.935,1.935,0,0,0,0-2.736Z" transform="translate(-149.624 -20.566)" fill="#919d6a"/>
    <path id="Path_220" data-name="Path 220" d="M415.334,0l-6.466,6.466a2.286,2.286,0,0,0,0,3.232l6.466,6.466L421.8,9.7a2.285,2.285,0,0,0,0-3.232Z" transform="translate(-148.993)" fill="#919d6a"/>
    <path id="Path_221" data-name="Path 221" d="M363.47,225.384l-2.487,2.487a.879.879,0,0,0,0,1.243l2.487,2.487,2.487-2.487a.88.88,0,0,0,0-1.243Z" transform="translate(-131.665 -82.265)" fill="#919d6a"/>
    <path id="Path_222" data-name="Path 222" d="M362.838,169.039l-3.482,3.481a1.231,1.231,0,0,0,0,1.741l3.482,3.481,3.481-3.481a1.231,1.231,0,0,0,0-1.741Z" transform="translate(-131.034 -61.699)" fill="#919d6a"/>
    <path id="Path_223" data-name="Path 223" d="M362.208,112.692l-4.476,4.476a1.582,1.582,0,0,0,0,2.238l4.476,4.476,4.475-4.476a1.581,1.581,0,0,0,0-2.238Z" transform="translate(-130.403 -41.133)" fill="#919d6a"/>
    <path id="Path_224" data-name="Path 224" d="M361.577,56.346l-5.47,5.471a1.934,1.934,0,0,0,0,2.736l5.47,5.471,5.471-5.471a1.935,1.935,0,0,0,0-2.736Z" transform="translate(-129.772 -20.566)" fill="#919d6a"/>
    <path id="Path_225" data-name="Path 225" d="M360.946,0l-6.465,6.466a2.285,2.285,0,0,0,0,3.232l6.465,6.465L367.411,9.7a2.285,2.285,0,0,0,0-3.232Z" transform="translate(-129.141)" fill="#919d6a"/>
    <path id="Path_226" data-name="Path 226" d="M309.081,225.384l-2.487,2.487a.88.88,0,0,0,0,1.243l2.487,2.487,2.487-2.487a.88.88,0,0,0,0-1.243Z" transform="translate(-111.813 -82.265)" fill="#919d6a"/>
    <path id="Path_227" data-name="Path 227" d="M308.45,169.039l-3.482,3.481a1.231,1.231,0,0,0,0,1.741l3.482,3.481,3.481-3.481a1.231,1.231,0,0,0,0-1.741Z" transform="translate(-111.182 -61.699)" fill="#919d6a"/>
    <path id="Path_228" data-name="Path 228" d="M307.82,112.692l-4.476,4.476a1.582,1.582,0,0,0,0,2.238l4.476,4.476,4.475-4.476a1.581,1.581,0,0,0,0-2.238Z" transform="translate(-110.551 -41.133)" fill="#919d6a"/>
    <path id="Path_229" data-name="Path 229" d="M307.189,56.346l-5.47,5.471a1.934,1.934,0,0,0,0,2.736l5.47,5.471,5.471-5.471a1.935,1.935,0,0,0,0-2.736Z" transform="translate(-109.92 -20.566)" fill="#919d6a"/>
    <path id="Path_230" data-name="Path 230" d="M306.558,0l-6.466,6.466a2.286,2.286,0,0,0,0,3.232l6.466,6.465L313.023,9.7a2.285,2.285,0,0,0,0-3.232Z" transform="translate(-109.289)" fill="#919d6a"/>
    <path id="Path_231" data-name="Path 231" d="M254.693,225.384l-2.487,2.487a.88.88,0,0,0,0,1.243l2.487,2.487,2.487-2.487a.879.879,0,0,0,0-1.243Z" transform="translate(-91.961 -82.265)" fill="#919d6a"/>
    <path id="Path_232" data-name="Path 232" d="M254.062,169.039l-3.481,3.481a1.231,1.231,0,0,0,0,1.741l3.481,3.481,3.482-3.481a1.231,1.231,0,0,0,0-1.741Z" transform="translate(-91.33 -61.699)" fill="#919d6a"/>
    <path id="Path_233" data-name="Path 233" d="M253.431,112.692l-4.475,4.476a1.581,1.581,0,0,0,0,2.238l4.475,4.476,4.476-4.476a1.582,1.582,0,0,0,0-2.238Z" transform="translate(-90.699 -41.133)" fill="#919d6a"/>
    <path id="Path_234" data-name="Path 234" d="M252.8,56.346l-5.47,5.471a1.934,1.934,0,0,0,0,2.736l5.47,5.471,5.471-5.471a1.934,1.934,0,0,0,0-2.736Z" transform="translate(-90.069 -20.566)" fill="#919d6a"/>
    <path id="Path_235" data-name="Path 235" d="M252.169,0,245.7,6.465a2.287,2.287,0,0,0,0,3.233l6.465,6.465L258.635,9.7a2.285,2.285,0,0,0,0-3.232Z" transform="translate(-89.438)" fill="#919d6a"/>
    <path id="Path_236" data-name="Path 236" d="M200.3,225.384l-2.487,2.487a.88.88,0,0,0,0,1.243L200.3,231.6l2.487-2.487a.879.879,0,0,0,0-1.243Z" transform="translate(-72.11 -82.265)" fill="#919d6a"/>
    <path id="Path_237" data-name="Path 237" d="M199.674,169.039l-3.481,3.48a1.231,1.231,0,0,0,0,1.741l3.481,3.481,3.482-3.481a1.231,1.231,0,0,0,0-1.741Z" transform="translate(-71.479 -61.699)" fill="#919d6a"/>
    <path id="Path_238" data-name="Path 238" d="M199.043,112.692l-4.475,4.476a1.581,1.581,0,0,0,0,2.238l4.475,4.476,4.476-4.476a1.582,1.582,0,0,0,0-2.238Z" transform="translate(-70.848 -41.133)" fill="#919d6a"/>
    <path id="Path_239" data-name="Path 239" d="M198.412,56.346l-5.471,5.471a1.935,1.935,0,0,0,0,2.736l5.471,5.471,5.471-5.471a1.934,1.934,0,0,0,0-2.736Z" transform="translate(-70.217 -20.566)" fill="#919d6a"/>
    <path id="Path_240" data-name="Path 240" d="M197.781,0l-6.465,6.465a2.286,2.286,0,0,0,0,3.233l6.465,6.465L204.247,9.7a2.287,2.287,0,0,0,0-3.233Z" transform="translate(-69.586)" fill="#919d6a"/>
    <path id="Path_241" data-name="Path 241" d="M145.917,225.384l-2.487,2.487a.879.879,0,0,0,0,1.243l2.487,2.487,2.487-2.487a.879.879,0,0,0,0-1.243Z" transform="translate(-52.258 -82.265)" fill="#919d6a"/>
    <path id="Path_242" data-name="Path 242" d="M145.286,169.038l-3.481,3.481a1.231,1.231,0,0,0,0,1.741l3.481,3.481,3.482-3.481a1.233,1.233,0,0,0,0-1.741Z" transform="translate(-51.627 -61.699)" fill="#919d6a"/>
    <path id="Path_243" data-name="Path 243" d="M144.655,112.692l-4.476,4.476a1.582,1.582,0,0,0,0,2.238l4.476,4.476,4.476-4.476a1.582,1.582,0,0,0,0-2.238Z" transform="translate(-50.996 -41.133)" fill="#919d6a"/>
    <path id="Path_244" data-name="Path 244" d="M144.024,56.346l-5.471,5.471a1.935,1.935,0,0,0,0,2.736l5.471,5.471,5.471-5.471a1.934,1.934,0,0,0,0-2.736Z" transform="translate(-50.365 -20.566)" fill="#919d6a"/>
    <path id="Path_245" data-name="Path 245" d="M143.393,0l-6.465,6.465a2.286,2.286,0,0,0,0,3.233l6.465,6.465L149.859,9.7a2.287,2.287,0,0,0,0-3.233Z" transform="translate(-49.734)" fill="#919d6a"/>
    <path id="Path_246" data-name="Path 246" d="M91.529,225.384l-2.487,2.487a.879.879,0,0,0,0,1.243l2.487,2.487,2.487-2.487a.879.879,0,0,0,0-1.243Z" transform="translate(-32.406 -82.265)" fill="#919d6a"/>
    <path id="Path_247" data-name="Path 247" d="M90.9,169.038l-3.481,3.481a1.231,1.231,0,0,0,0,1.741l3.481,3.481,3.481-3.481a1.231,1.231,0,0,0,0-1.741Z" transform="translate(-31.775 -61.699)" fill="#919d6a"/>
    <path id="Path_248" data-name="Path 248" d="M90.267,112.692l-4.476,4.476a1.582,1.582,0,0,0,0,2.238l4.476,4.476,4.476-4.476a1.582,1.582,0,0,0,0-2.238Z" transform="translate(-31.144 -41.133)" fill="#919d6a"/>
    <path id="Path_249" data-name="Path 249" d="M89.636,56.346l-5.471,5.471a1.934,1.934,0,0,0,0,2.735l5.471,5.471,5.471-5.471a1.933,1.933,0,0,0,0-2.735Z" transform="translate(-30.514 -20.566)" fill="#919d6a"/>
    <path id="Path_250" data-name="Path 250" d="M89.005,0,82.54,6.465a2.286,2.286,0,0,0,0,3.233l6.465,6.465L95.47,9.7a2.286,2.286,0,0,0,0-3.233Z" transform="translate(-29.883)" fill="#919d6a"/>
    <path id="Path_251" data-name="Path 251" d="M37.141,225.384l-2.487,2.487a.879.879,0,0,0,0,1.243l2.487,2.487,2.487-2.487a.879.879,0,0,0,0-1.243Z" transform="translate(-12.555 -82.265)" fill="#919d6a"/>
    <path id="Path_252" data-name="Path 252" d="M36.51,169.038l-3.481,3.481a1.231,1.231,0,0,0,0,1.741l3.481,3.481,3.481-3.481a1.231,1.231,0,0,0,0-1.741Z" transform="translate(-11.924 -61.699)" fill="#919d6a"/>
    <path id="Path_253" data-name="Path 253" d="M35.879,112.692,31.4,117.168a1.582,1.582,0,0,0,0,2.238l4.476,4.476,4.476-4.476a1.582,1.582,0,0,0,0-2.238Z" transform="translate(-11.293 -41.133)" fill="#919d6a"/>
    <path id="Path_254" data-name="Path 254" d="M35.248,56.346l-5.471,5.471a1.934,1.934,0,0,0,0,2.735l5.471,5.471,5.471-5.471a1.934,1.934,0,0,0,0-2.735Z" transform="translate(-10.662 -20.566)" fill="#919d6a"/>
    <path id="Path_255" data-name="Path 255" d="M34.617,0,28.152,6.465a2.286,2.286,0,0,0,0,3.233l6.465,6.465L41.082,9.7a2.286,2.286,0,0,0,0-3.233Z" transform="translate(-10.031)" fill="#919d6a"/>
    <path id="Path_256" data-name="Path 256" d="M554,253.122l-2.21,2.21a.782.782,0,0,0,0,1.106l2.21,2.21,2.21-2.21a.781.781,0,0,0,0-1.106Z" transform="translate(-201.321 -92.39)" fill="#919d6a"/>
    <path id="Path_257" data-name="Path 257" d="M553.3,196.559l-3.315,3.315a1.172,1.172,0,0,0,0,1.658l3.315,3.315,3.315-3.315a1.172,1.172,0,0,0,0-1.658Z" transform="translate(-200.62 -71.744)" fill="#919d6a"/>
    <path id="Path_258" data-name="Path 258" d="M552.6,139.995l-4.42,4.421a1.562,1.562,0,0,0,0,2.21l4.42,4.42,4.421-4.42a1.563,1.563,0,0,0,0-2.21Z" transform="translate(-199.919 -51.098)" fill="#919d6a"/>
    <path id="Path_259" data-name="Path 259" d="M551.9,83.431l-5.526,5.526a1.954,1.954,0,0,0,0,2.763l5.526,5.526,5.526-5.526a1.953,1.953,0,0,0,0-2.763Z" transform="translate(-199.218 -30.452)" fill="#919d6a"/>
    <path id="Path_260" data-name="Path 260" d="M551.2,26.868,544.568,33.5a2.344,2.344,0,0,0,0,3.315l6.631,6.631,6.631-6.631a2.344,2.344,0,0,0,0-3.315Z" transform="translate(-198.517 -9.807)" fill="#919d6a"/>
    <path id="Path_261" data-name="Path 261" d="M499.615,253.122l-2.21,2.21a.783.783,0,0,0,0,1.106l2.21,2.21,2.21-2.21a.783.783,0,0,0,0-1.106Z" transform="translate(-181.469 -92.39)" fill="#919d6a"/>
    <path id="Path_262" data-name="Path 262" d="M498.914,196.559l-3.315,3.315a1.172,1.172,0,0,0,0,1.658l3.315,3.315,3.315-3.315a1.172,1.172,0,0,0,0-1.658Z" transform="translate(-180.768 -71.744)" fill="#919d6a"/>
    <path id="Path_263" data-name="Path 263" d="M498.213,139.995l-4.421,4.421a1.563,1.563,0,0,0,0,2.21l4.421,4.42,4.421-4.42a1.563,1.563,0,0,0,0-2.21Z" transform="translate(-180.067 -51.098)" fill="#919d6a"/>
    <path id="Path_264" data-name="Path 264" d="M497.512,83.431l-5.526,5.526a1.955,1.955,0,0,0,0,2.764l5.526,5.526,5.526-5.526a1.954,1.954,0,0,0,0-2.764Z" transform="translate(-179.366 -30.452)" fill="#919d6a"/>
    <path id="Path_265" data-name="Path 265" d="M496.811,26.868,490.18,33.5a2.345,2.345,0,0,0,0,3.315l6.631,6.631,6.631-6.631a2.345,2.345,0,0,0,0-3.315Z" transform="translate(-178.665 -9.807)" fill="#919d6a"/>
    <path id="Path_266" data-name="Path 266" d="M445.227,253.122l-2.21,2.21a.781.781,0,0,0,0,1.106l2.21,2.21,2.21-2.21a.783.783,0,0,0,0-1.106Z" transform="translate(-161.617 -92.39)" fill="#919d6a"/>
    <path id="Path_267" data-name="Path 267" d="M444.526,196.559l-3.315,3.315a1.172,1.172,0,0,0,0,1.658l3.315,3.315,3.315-3.315a1.172,1.172,0,0,0,0-1.658Z" transform="translate(-160.916 -71.744)" fill="#919d6a"/>
    <path id="Path_268" data-name="Path 268" d="M443.825,139.995l-4.421,4.421a1.563,1.563,0,0,0,0,2.21l4.421,4.42,4.42-4.42a1.562,1.562,0,0,0,0-2.21Z" transform="translate(-160.215 -51.098)" fill="#919d6a"/>
    <path id="Path_269" data-name="Path 269" d="M443.124,83.431,437.6,88.957a1.954,1.954,0,0,0,0,2.764l5.526,5.526,5.526-5.526a1.954,1.954,0,0,0,0-2.764Z" transform="translate(-159.514 -30.452)" fill="#919d6a"/>
    <path id="Path_270" data-name="Path 270" d="M442.423,26.868,435.792,33.5a2.345,2.345,0,0,0,0,3.315l6.631,6.631,6.631-6.631a2.345,2.345,0,0,0,0-3.315Z" transform="translate(-158.813 -9.807)" fill="#919d6a"/>
    <path id="Path_271" data-name="Path 271" d="M390.839,253.122h0l-2.21,2.21a.781.781,0,0,0,0,1.106l2.21,2.21,2.21-2.21a.781.781,0,0,0,0-1.106Z" transform="translate(-141.766 -92.39)" fill="#919d6a"/>
    <path id="Path_272" data-name="Path 272" d="M390.138,196.559l-3.315,3.315a1.172,1.172,0,0,0,0,1.657l3.315,3.316,3.315-3.316a1.172,1.172,0,0,0,0-1.657Z" transform="translate(-141.065 -71.744)" fill="#919d6a"/>
    <path id="Path_273" data-name="Path 273" d="M389.437,139.995l-4.421,4.421a1.563,1.563,0,0,0,0,2.21l4.421,4.42,4.42-4.42a1.562,1.562,0,0,0,0-2.21Z" transform="translate(-140.364 -51.098)" fill="#919d6a"/>
    <path id="Path_274" data-name="Path 274" d="M388.736,83.431l-5.526,5.526a1.953,1.953,0,0,0,0,2.763l5.526,5.526,5.526-5.526a1.954,1.954,0,0,0,0-2.763Z" transform="translate(-139.663 -30.452)" fill="#919d6a"/>
    <path id="Path_275" data-name="Path 275" d="M388.035,26.868,381.4,33.5a2.344,2.344,0,0,0,0,3.315l6.631,6.631,6.631-6.631a2.344,2.344,0,0,0,0-3.315Z" transform="translate(-138.961 -9.807)" fill="#919d6a"/>
    <path id="Path_276" data-name="Path 276" d="M336.451,253.123l-2.21,2.21a.781.781,0,0,0,0,1.106l2.21,2.21,2.21-2.21a.783.783,0,0,0,0-1.106Z" transform="translate(-121.914 -92.39)" fill="#919d6a"/>
    <path id="Path_277" data-name="Path 277" d="M335.75,196.558h0l-3.315,3.316a1.172,1.172,0,0,0,0,1.657l3.315,3.316h0l3.315-3.316a1.172,1.172,0,0,0,0-1.657Z" transform="translate(-121.213 -71.744)" fill="#919d6a"/>
    <path id="Path_278" data-name="Path 278" d="M335.049,139.995l-4.421,4.421a1.563,1.563,0,0,0,0,2.21l4.421,4.42,4.42-4.42a1.562,1.562,0,0,0,0-2.21Z" transform="translate(-120.512 -51.098)" fill="#919d6a"/>
    <path id="Path_279" data-name="Path 279" d="M334.348,83.431l-5.526,5.526a1.953,1.953,0,0,0,0,2.763l5.526,5.526,5.526-5.526a1.954,1.954,0,0,0,0-2.763Z" transform="translate(-119.811 -30.452)" fill="#919d6a"/>
    <path id="Path_280" data-name="Path 280" d="M333.647,26.868,327.015,33.5a2.344,2.344,0,0,0,0,3.315l6.631,6.631,6.631-6.631a2.344,2.344,0,0,0,0-3.315Z" transform="translate(-119.11 -9.807)" fill="#919d6a"/>
    <path id="Path_281" data-name="Path 281" d="M282.062,253.123l-2.21,2.21a.783.783,0,0,0,0,1.106l2.21,2.21,2.21-2.21a.781.781,0,0,0,0-1.106Z" transform="translate(-102.062 -92.39)" fill="#919d6a"/>
    <path id="Path_282" data-name="Path 282" d="M281.362,196.558h0l-3.315,3.316a1.173,1.173,0,0,0,0,1.657l3.315,3.316h0l3.315-3.316a1.173,1.173,0,0,0,0-1.657Z" transform="translate(-101.362 -71.744)" fill="#919d6a"/>
    <path id="Path_283" data-name="Path 283" d="M280.66,139.995l-4.42,4.421a1.563,1.563,0,0,0,0,2.21l4.42,4.42,4.421-4.42a1.563,1.563,0,0,0,0-2.21Z" transform="translate(-100.66 -51.098)" fill="#919d6a"/>
    <path id="Path_284" data-name="Path 284" d="M279.96,83.431l-5.526,5.526a1.954,1.954,0,0,0,0,2.763l5.526,5.526,5.526-5.526a1.954,1.954,0,0,0,0-2.763Z" transform="translate(-99.959 -30.452)" fill="#919d6a"/>
    <path id="Path_285" data-name="Path 285" d="M279.259,26.868,272.627,33.5a2.344,2.344,0,0,0,0,3.315l6.631,6.631,6.631-6.631a2.344,2.344,0,0,0,0-3.315Z" transform="translate(-99.258 -9.807)" fill="#919d6a"/>
    <path id="Path_286" data-name="Path 286" d="M227.674,253.123l-2.21,2.21a.783.783,0,0,0,0,1.106l2.21,2.21,2.21-2.21a.781.781,0,0,0,0-1.106Z" transform="translate(-82.211 -92.39)" fill="#919d6a"/>
    <path id="Path_287" data-name="Path 287" d="M226.974,196.558h0l-3.315,3.316a1.173,1.173,0,0,0,0,1.657l3.315,3.316h0l3.315-3.316a1.172,1.172,0,0,0,0-1.657Z" transform="translate(-81.51 -71.744)" fill="#919d6a"/>
    <path id="Path_288" data-name="Path 288" d="M226.272,139.995l-4.42,4.42a1.564,1.564,0,0,0,0,2.211l4.42,4.42,4.421-4.42a1.564,1.564,0,0,0,0-2.211Z" transform="translate(-80.809 -51.098)" fill="#919d6a"/>
    <path id="Path_289" data-name="Path 289" d="M225.571,83.431l-5.526,5.526a1.954,1.954,0,0,0,0,2.763l5.526,5.526L231.1,91.72a1.953,1.953,0,0,0,0-2.763Z" transform="translate(-80.108 -30.452)" fill="#919d6a"/>
    <path id="Path_290" data-name="Path 290" d="M224.87,26.868,218.239,33.5a2.344,2.344,0,0,0,0,3.315l6.631,6.631,6.631-6.631a2.344,2.344,0,0,0,0-3.315Z" transform="translate(-79.407 -9.807)" fill="#919d6a"/>
    <path id="Path_291" data-name="Path 291" d="M173.286,253.123l-2.21,2.21a.781.781,0,0,0,0,1.106l2.21,2.21,2.21-2.21a.781.781,0,0,0,0-1.106Z" transform="translate(-62.359 -92.39)" fill="#919d6a"/>
    <path id="Path_292" data-name="Path 292" d="M172.585,196.558l-3.315,3.316a1.172,1.172,0,0,0,0,1.657l3.315,3.316,3.315-3.316a1.172,1.172,0,0,0,0-1.657Z" transform="translate(-61.658 -71.744)" fill="#919d6a"/>
    <path id="Path_293" data-name="Path 293" d="M171.884,139.995l-4.42,4.42a1.563,1.563,0,0,0,0,2.211l4.42,4.42,4.421-4.42a1.564,1.564,0,0,0,0-2.211Z" transform="translate(-60.957 -51.098)" fill="#919d6a"/>
    <path id="Path_294" data-name="Path 294" d="M171.183,83.431l-5.526,5.526a1.954,1.954,0,0,0,0,2.763l5.526,5.526,5.526-5.526a1.953,1.953,0,0,0,0-2.763Z" transform="translate(-60.256 -30.452)" fill="#919d6a"/>
    <path id="Path_295" data-name="Path 295" d="M170.482,26.868,163.851,33.5a2.344,2.344,0,0,0,0,3.315l6.631,6.631,6.631-6.631a2.344,2.344,0,0,0,0-3.315Z" transform="translate(-59.555 -9.807)" fill="#919d6a"/>
    <path id="Path_296" data-name="Path 296" d="M118.9,253.123l-2.21,2.21a.781.781,0,0,0,0,1.1l2.21,2.21,2.21-2.21a.781.781,0,0,0,0-1.1Z" transform="translate(-42.507 -92.39)" fill="#919d6a"/>
    <path id="Path_297" data-name="Path 297" d="M118.2,196.558l-3.315,3.316a1.172,1.172,0,0,0,0,1.657l3.315,3.316,3.315-3.316a1.172,1.172,0,0,0,0-1.657Z" transform="translate(-41.806 -71.744)" fill="#919d6a"/>
    <path id="Path_298" data-name="Path 298" d="M117.5,139.995l-4.42,4.42a1.562,1.562,0,0,0,0,2.21l4.42,4.421,4.421-4.421a1.563,1.563,0,0,0,0-2.21Z" transform="translate(-41.105 -51.098)" fill="#919d6a"/>
    <path id="Path_299" data-name="Path 299" d="M116.795,83.431l-5.526,5.526a1.954,1.954,0,0,0,0,2.763l5.526,5.526,5.526-5.526a1.953,1.953,0,0,0,0-2.763Z" transform="translate(-40.404 -30.452)" fill="#919d6a"/>
    <path id="Path_300" data-name="Path 300" d="M116.094,26.868,109.463,33.5a2.344,2.344,0,0,0,0,3.315l6.631,6.631,6.631-6.631a2.344,2.344,0,0,0,0-3.315Z" transform="translate(-39.703 -9.807)" fill="#919d6a"/>
    <path id="Path_301" data-name="Path 301" d="M64.51,253.123l-2.21,2.21a.781.781,0,0,0,0,1.1l2.21,2.21,2.21-2.21a.781.781,0,0,0,0-1.1Z" transform="translate(-22.656 -92.39)" fill="#919d6a"/>
    <path id="Path_302" data-name="Path 302" d="M63.809,196.558l-3.315,3.316a1.172,1.172,0,0,0,0,1.657l3.315,3.316,3.315-3.316a1.172,1.172,0,0,0,0-1.657Z" transform="translate(-21.955 -71.744)" fill="#919d6a"/>
    <path id="Path_303" data-name="Path 303" d="M63.108,139.995l-4.421,4.42a1.563,1.563,0,0,0,0,2.21l4.421,4.421,4.421-4.421a1.563,1.563,0,0,0,0-2.21Z" transform="translate(-21.254 -51.098)" fill="#919d6a"/>
    <path id="Path_304" data-name="Path 304" d="M62.407,83.431l-5.526,5.526a1.953,1.953,0,0,0,0,2.763l5.526,5.526,5.526-5.526a1.953,1.953,0,0,0,0-2.763Z" transform="translate(-20.553 -30.452)" fill="#919d6a"/>
    <path id="Path_305" data-name="Path 305" d="M61.706,26.868,55.075,33.5a2.345,2.345,0,0,0,0,3.315l6.631,6.631,6.631-6.631a2.345,2.345,0,0,0,0-3.315Z" transform="translate(-19.852 -9.807)" fill="#919d6a"/>
    <path id="Path_306" data-name="Path 306" d="M10.122,253.123l-2.21,2.21a.781.781,0,0,0,0,1.1l2.21,2.21,2.21-2.21a.781.781,0,0,0,0-1.1Z" transform="translate(-2.804 -92.39)" fill="#919d6a"/>
    <path id="Path_307" data-name="Path 307" d="M9.421,196.558l-3.315,3.316a1.172,1.172,0,0,0,0,1.657l3.315,3.316,3.315-3.316a1.172,1.172,0,0,0,0-1.657Z" transform="translate(-2.103 -71.744)" fill="#919d6a"/>
    <path id="Path_308" data-name="Path 308" d="M8.72,139.995,4.3,144.415a1.563,1.563,0,0,0,0,2.21l4.421,4.421,4.42-4.421a1.562,1.562,0,0,0,0-2.21Z" transform="translate(-1.402 -51.098)" fill="#919d6a"/>
    <path id="Path_309" data-name="Path 309" d="M8.019,83.431,2.493,88.957a1.953,1.953,0,0,0,0,2.763l5.526,5.526,5.526-5.526a1.954,1.954,0,0,0,0-2.763Z" transform="translate(-0.701 -30.452)" fill="#919d6a"/>
    <path id="Path_310" data-name="Path 310" d="M7.318,26.867.687,33.5a2.345,2.345,0,0,0,0,3.315l6.631,6.631,6.631-6.631a2.345,2.345,0,0,0,0-3.315Z" transform="translate(0 -9.806)" fill="#919d6a"/>
  </g>
</svg>
