<svg xmlns="http://www.w3.org/2000/svg" width="62.126" height="62.898" viewBox="0 0 62.126 62.898"><g transform="translate(0 0.022)" opacity="0.75"><path d="M282.979,481.377a.687.687,0,1,0-.007,0Z" transform="translate(-259.638 -442.178)" fill="#fff"/><path d="M264.8,492.773a.686.686,0,1,0-.949-.215.686.686,0,0,0,.949.215Z" transform="translate(-242.892 -452.671)" fill="#fff"/><path d="M202.55,45.931c.2-.478.945-1.731-.026-1.876-1.107-.164-2.878,1.739-3.679,2.558-.695.7-2.063,2.254-3.028,2.46-.632.137-.767-.344-.755-.822,1.777-1.486,3.437-3.289,4.924-4.431.8-.617,2.434-1.9,3.031-.421.1-.542.372-1.65-.344-1.976a.833.833,0,0,0-.455-.056,7.351,7.351,0,0,0-2.745,1.667c.2-1.107.642-2.372-.776-2.53-.928-.1-2.92.2-3.615-.261.851-.671,3-2.4,3.676-.607.305-.822.535-1.953-.036-2.354-1.319-.92-3.078,1.667-4.439,1.888a5.4,5.4,0,0,1-.642-2.22c2.066.1,4.176.055,5.131-3.774a5.877,5.877,0,0,1-5.26,2.271h0c-.331-13.165-.426-16.817-.668-29.975h0c2.135,2.372,3.089,3.083,3.055,7.345,0,10.282.1,10.72.237,21a7.029,7.029,0,0,0,1.033-3.746c.085-8.486-.047-7.122,0-15.606h0c1.829,2.01,2.648,2.9,2.621,6.865,0,8.479.07,7.127.168,15.614a7.9,7.9,0,0,0,1.142-4.412c-.006-6.115-.066-2.341-.042-8.427h0c1.612,1.787,2.339,2.794,2.314,6.525,0,2.815.04-.223.084,4.544q.02,2.445.046,4.889c.691-.934,1.043-3.123,1.165-4.5-.026-5.148-.059-.432-.008-5.583a8.024,8.024,0,0,0-3.6-6.522c.006-.928.009-1.854.019-2.783a8.025,8.025,0,0,0-3.905-6.72q.007-.9.012-1.8a8.043,8.043,0,0,0-4.348-6.978c-.015-.87-.035-1.732-.051-2.6-.042-2.055-.933-2.722-2.195-2.594l-.224.028a.046.046,0,0,0-.017,0,9.033,9.033,0,0,0-3.011,1.313A29.72,29.72,0,0,0,177.634,9.5c-8.335,10.779-4.348,15.815-3.89,31.319q.037,1.273.034,2.571c2.929-9.432-3.079-15.685.878-27.088,1.33-3.524,5-10.224,14.649-15.224,1.478-.432,2.164.253,2.184,1.493.008.843.021,1.668.035,2.48-.1.007-3.789.268-8.444,5.168a18.927,18.927,0,0,0-1.643,1.884c-.011.017-.025.035-.037.053v0a20.516,20.516,0,0,0-2.116,3.5l.006.007c-3.066,6.641-.656,8.609-.356,18.784q.028,1.014.027,2.048c2.376-7.653-2.626-11.19.875-20.2l.008,0s.011-.04.038-.115a18.144,18.144,0,0,1,.77-1.686c.655-1.02,3.689-5.5,8.054-7.791a18.888,18.888,0,0,1,2.81-1.079l.015,0c.038,2.425.079,4.734.114,6.967a8.443,8.443,0,0,0-3.549,1.5l-.04.025-.009.006c-.158.1-.326.209-.5.324a11.992,11.992,0,0,0-1.4,1.24,15.574,15.574,0,0,0-1.61,1.827l-.181.247a9.864,9.864,0,0,0-1.81,4.94A32.953,32.953,0,0,0,183,28.492c.164,1.759.284,2.116.361,3.882a6.507,6.507,0,0,0,.345-3.724,33.206,33.206,0,0,1-.354-5.165,12.264,12.264,0,0,1,.7-3.4v.009a12.152,12.152,0,0,1,7.608-6.889c.042,2.244.085,4.418.127,6.562a5.128,5.128,0,0,0-.734.376h.011c-.152.085-.3.173-.441.269a14.521,14.521,0,0,0-1.406,1.088,5.876,5.876,0,0,0-2.381,4.69c.072,1.323.522,2.609.495,3.941a6.958,6.958,0,0,0,.213-2.433s-.288-2.79.8-4.3a9.556,9.556,0,0,1,3.46-3.154c.139,6.549.3,7.521.474,15.118-3.434-.168-3.134,1.793-4.181,4.538-.095.428.384.224.545.142,1.028-.513,2.846.7,4.283.662-2.086,1.686-5.038,3.894-5.737,3.5-.4-.226-.143-1.018.118-1.66.751-.434,1.581-.644,1.968.316.1-.54.372-1.648-.341-1.976-1.017-.468-3.645,1.976-4.4,2.645-2.284,2.031-4.4,4.206-7.389,5.323-2.817,1.048-5.687.511-8.548-.079a16.812,16.812,0,0,0,8.175,1.451c2.276-.387,4.476-2.358,6.483-4.256a9.29,9.29,0,0,0-.775,1.8c-.3,1.034-.613,2.831.9,3.034a3.807,3.807,0,0,0,1.9-.482,14.143,14.143,0,0,0,5.251.447,9.464,9.464,0,0,0,4.121-2.157h0c-.172,1-.172,2.468.957,2.263,1.028-.187,2.886-2.471,3.637-3.269C199.939,46.831,201.577,45.07,202.55,45.931Zm-13.2-7.6h0c.712-1.675,1.757-1.472,3.044-1.442a9.6,9.6,0,0,0,.531,2.323C192.07,39.276,190.609,38.385,189.353,38.336ZM183,47.759a9.853,9.853,0,0,1,.878-2.4c.825-.779,1.609-1.514,2.355-2.084l.484-.373c-.537,1.093-1.083,2.584-.228,3.094,1.312.78,4.649-2.426,7.431-4.8a3.391,3.391,0,0,0,.87.9C193.288,43.075,182.2,52.42,183,47.759Zm7.882,1.626a10.815,10.815,0,0,1-4.843.534,46.375,46.375,0,0,0,5.258-3.58c-.379.7-.818,1.768-.553,2.188.375.587.955-.595.786-.731-.131-.106-.2.412-.36.316-.493-.29.139-1.388.316-1.818.015-.047.035-.092.046-.138,1.417-1.081,2.64-2.063,3.342-2.565,1.131-.817,2.739-1.707,4.436-.427-.293.245-.546.47-.737.632C196.173,45.9,194.008,48.221,190.887,49.385Z" transform="translate(-155.262 0)" fill="#fff"/><path d="M588.315,491.721a.685.685,0,1,0-.685-.686.685.685,0,0,0,.685.686Z" transform="translate(-541.174 -451.605)" fill="#fff"/><path d="M176.232,417.434c.811-.691,3.227-3.162,3.76-1.826.681-1.464,1.017-5.431-1.014-6.016.274-.482.949-1.308.279-1.654-.485-.247-1.323-.367-1.016-1.148-.226.423-.949,1.357-.8,1.836.158.515,1.153.257,1.4.931-1.641-.316-3.192,2.273-2.274,3.256.732.791,2.7-.736,3.511.935-1.127-.33-3.467,1.95-4.317,2.688l-.441.383c2.379-9.356-12.138,2.456-6.841,2.983-1.847,1.417-3.6,2.142-7.887,2.7h-.049C169.024,424.145,169.662,423.055,176.232,417.434Zm-.957-2.148c-.712-1.168-4.9,2.925-5.677,3.592C165.411,419.8,174.437,412.043,175.275,415.286Zm-5.007,4.427c.78-.658,4.246-4.312,4.981-2.841-3.546,3.075-5.634,4.835-9.045,5.459a12.478,12.478,0,0,0,4.067-2.619Z" transform="translate(-147.848 -374.651)" fill="#fff"/><path d="M318.432,607.335c-.131-.106-.2.412-.361.316-.491-.289.139-1.386.316-1.818a.849.849,0,0,0,.079-.352c0-.029-.013-.028-.031,0-.378.58-1.112,2.073-.783,2.588C318.023,608.648,318.6,607.473,318.432,607.335Z" transform="translate(-292.463 -557.614)" fill="#fff"/><path d="M578.516,471.759a.688.688,0,1,0-.689.686h0A.689.689,0,0,0,578.516,471.759Z" transform="translate(-531.513 -433.849)" fill="#fff"/><path d="M489.216,565.48a.384.384,0,0,1-.5-.032l.534-.474-.006-.334-.7.633-.18.158c.2.266.367.36.527.344l-.736.663.005.316,1.732-1.527-.012-.338Z" transform="translate(-449.558 -520.021)" fill="#fff"/><path d="M366.308,562.316c0-.037-.015-.036-.034,0-.507.764-1.464,2.727-1.036,3.4.493.772,1.255-.78,1.028-.96-.168-.14-.26.542-.474.415-.643-.381.187-1.825.417-2.388A1.1,1.1,0,0,0,366.308,562.316Z" transform="translate(-336.264 -517.856)" fill="#fff"/><path d="M566.16,491.033a.685.685,0,1,0,.688-.683A.685.685,0,0,0,566.16,491.033Z" transform="translate(-521.401 -451.605)" fill="#fff"/><path d="M554.466,600.138c0-.029-.012-.027-.027,0-.38.58-1.113,2.074-.791,2.588.377.587.955-.594.784-.732-.128-.105-.2.412-.362.316-.487-.289.145-1.385.316-1.818A.877.877,0,0,0,554.466,600.138Z" transform="translate(-509.805 -552.694)" fill="#fff"/><path d="M578.97,593.345l-.661.591a.384.384,0,0,1-.5-.03l.537-.474-.008-.331c-.242.217-.469.42-.7.632l-.181.158c.2.266.37.363.527.346l-.74.657.011.316,1.726-1.527Z" transform="translate(-531.605 -546.232)" fill="#fff"/><path d="M133.718,718.51a1.6,1.6,0,0,1-.059.535c-.079.166-.253.247-.529.247h-1.2v-.217a1.775,1.775,0,0,0-.46-1.246,1.555,1.555,0,0,0-1.209-.5,1.624,1.624,0,0,0-1.217.487,1.72,1.72,0,0,0-.464,1.229,2.334,2.334,0,0,0,.009.247h-1.976a2.172,2.172,0,0,1-.327-.015.654.654,0,0,1-.3-.186,4.44,4.44,0,0,0,.859-.836,3.088,3.088,0,0,0,.531-.829,3.153,3.153,0,0,0-2.128-.776,3.739,3.739,0,0,0-2.021.613v.791a2.894,2.894,0,0,1,.881.4,2.07,2.07,0,0,1,.632.553,1.531,1.531,0,0,1-.538.232,2.393,2.393,0,0,1-.583.053h-2.229v-2.538h-.835v2.852a.923.923,0,0,1-1.037,1.059v.718c1.012,0,1.692-.44,1.818-1.24h2.3a2.948,2.948,0,0,0,1.646-.538,1.581,1.581,0,0,0,.479.358,1.459,1.459,0,0,0,.662.179h2.5a1.553,1.553,0,0,0,1.336.651,1.579,1.579,0,0,0,1.348-.651h1.69c.835,0,1.251-.448,1.251-1.35V715.33h-.833Zm-8.323.068a2.975,2.975,0,0,0-1.27-.9,2.473,2.473,0,0,1,1.149-.3,2.082,2.082,0,0,1,1.083.3,3.658,3.658,0,0,1-.417.494A2.351,2.351,0,0,1,125.395,718.578Zm5.488,1.156a.718.718,0,0,1-.6.283.887.887,0,0,1-.841-.978,1.1,1.1,0,0,1,.191-.657.712.712,0,0,1,.606-.3.765.765,0,0,1,.632.306,1.131,1.131,0,0,1,.2.68,1.1,1.1,0,0,1-.192.664Z" transform="translate(-110.071 -658.798)" fill="#fff"/><path d="M7.224,724.849a1.636,1.636,0,0,0-1.69,1.724,1.9,1.9,0,0,0,.217.888H4.227c-.561,0-.836-.316-.836-.9V724.2H1.547c-.955,0-1.547.695-1.547,1.814a1.561,1.561,0,0,0,1.547,1.753,1.145,1.145,0,0,0,.956-.56,1.4,1.4,0,0,0,1.351,1.107h3.37A1.628,1.628,0,0,0,8.9,726.6,1.657,1.657,0,0,0,7.224,724.849Zm-4.7,1.081c0,.633-.328,1.142-.87,1.142-.5,0-.822-.493-.822-1.066,0-.694.364-1.157.942-1.157h.75Zm4.713,1.613a.9.9,0,0,1-.845-.978c0-.581.321-.955.8-.955a.886.886,0,0,1,.841.985.837.837,0,0,1-.8.948Z" transform="translate(0 -666.967)" fill="#fff"/><rect width="0.822" height="0.838" transform="translate(2.502 55.791)" fill="#fff"/><rect width="0.822" height="0.838" transform="translate(1.093 55.791)" fill="#fff"/><rect width="0.814" height="0.828" transform="translate(6.812 56.426)" fill="#fff"/><rect width="0.824" height="4.822" transform="translate(25.255 56.523)" fill="#fff"/><rect width="0.828" height="4.822" transform="translate(39.725 56.523)" fill="#fff"/><rect width="0.829" height="4.822" transform="translate(32.519 56.523)" fill="#fff"/><path d="M433.018,735.105a1.622,1.622,0,0,1-.056.535.537.537,0,0,1-.534.247h-1.754V733.35h-.836V736.2a.921.921,0,0,1-1.037,1.059v.718c1.017,0,1.7-.44,1.823-1.24h1.985c.828,0,1.248-.448,1.248-1.35V733.35h-.839Z" transform="translate(-394.9 -675.394)" fill="#fff"/><path d="M500.179,780.678a.277.277,0,0,1,.259-.291.193.193,0,0,1,.208.164l.266-.126a.5.5,0,0,0-.469-.345.6.6,0,0,0-.583.614v.006a1.537,1.537,0,0,0,.067.262h-.3v.344h1.288v-.344h-.6A.3.3,0,0,1,500.179,780.678Z" transform="translate(-460.131 -718.429)" fill="#fff"/><rect width="0.805" height="0.738" transform="translate(37.471 55.456)" fill="#fff"/><rect width="0.803" height="0.738" transform="translate(38.129 56.532)" fill="#fff"/><path d="M362.8,740.88a.825.825,0,0,1,.133-.492.494.494,0,0,1,.44-.232.518.518,0,0,1,.531.4l.6-.411a1.246,1.246,0,0,0-1.165-.761,1.307,1.307,0,0,0-.984.417,1.443,1.443,0,0,0-.381,1.016,1.592,1.592,0,0,0,.124.627h-.678v.851h3.162v-.851h-1.6A.826.826,0,0,1,362.8,740.88Z" transform="translate(-332.847 -680.953)" fill="#fff"/><rect width="0.807" height="0.738" transform="translate(36.833 56.532)" fill="#fff"/><rect width="0.817" height="0.829" transform="translate(59.872 56.442)" fill="#fff"/><rect width="0.822" height="0.836" transform="translate(59.172 55.262)" fill="#fff"/><rect width="0.814" height="0.829" transform="translate(58.464 56.442)" fill="#fff"/><rect width="0.821" height="0.838" transform="translate(43.911 55.791)" fill="#fff"/><rect width="0.816" height="0.838" transform="translate(45.324 55.791)" fill="#fff"/><path d="M550.128,717.183a2.489,2.489,0,0,0-1.436-.41h-.361l1-1.423h-.991l-1.47,2.208H548.6a1.591,1.591,0,0,1,1.293.568,1.818,1.818,0,0,1,.4,1.186h-4.4c-.564,0-.836-.316-.836-.9V716.05h-1.845c-.953,0-1.546.695-1.546,1.814a1.561,1.561,0,0,0,1.546,1.753,1.153,1.153,0,0,0,.957-.56,1.393,1.393,0,0,0,1.349,1.107h5.673v-.523A2.72,2.72,0,0,0,550.128,717.183Zm-5.944.6c0,.632-.33,1.142-.876,1.142-.5,0-.817-.493-.817-1.067,0-.694.357-1.157.938-1.157h.754Z" transform="translate(-498.838 -658.817)" fill="#fff"/><path d="M677.525,733.35v1.716c0,.545-.21.821-.633.821h-.817a1.507,1.507,0,0,0,.175-.911V733.35H675.4v1.709c0,.553-.207.829-.632.829H674v-.044a1.834,1.834,0,0,0,.135-.87V733.35h-.844v1.66c0,.591-.207.882-.632.882H671.02v-2.538h-.84v2.852a.923.923,0,0,1-1.04,1.059v.718c1.016,0,1.7-.44,1.823-1.24h5.958c.849,0,1.444-.7,1.444-1.777V733.35Z" transform="translate(-616.24 -675.394)" fill="#fff"/></g></svg>