<svg xmlns="http://www.w3.org/2000/svg" width="140.388" height="126.413" viewBox="0 0 140.388 126.413"><g transform="translate(-91.43 -110.547)"><path d="M391.787,148.5a12.789,12.789,0,0,0-9.479,4,13.005,13.005,0,0,0-3.924,9.4v37.756H358.23V159.3h-1.948A11.681,11.681,0,0,0,344.6,170.979v41.413l47.186.017Z" transform="translate(-160.63 -24.083)" fill="#fff"/><path d="M442.578,338l-5.867,5.867a5.1,5.1,0,0,0,0,7.221l5.867,5.867,5.866-5.867a5.1,5.1,0,0,0,0-7.221Z" transform="translate(-218.122 -144.315)" fill="#fff"/><path d="M442.578,404.529l-5.867,5.867a5.1,5.1,0,0,0,0,7.22l5.867,5.867,5.866-5.867a5.1,5.1,0,0,0,0-7.22Z" transform="translate(-218.122 -186.523)" fill="#fff"/><path d="M153.228,171.162a11.681,11.681,0,0,0-11.682-11.682H139.6v40.365H119.445V162.089a13.005,13.005,0,0,0-3.924-9.4,12.789,12.789,0,0,0-9.479-4s-.238,85.368-.231,86.176c.084,8.236-1.463,23.969-14.382,26.227,0,0,28.293,2.644,27.917-24.642V212.591l33.882-.017Z" transform="translate(0 -24.198)" fill="#fff"/><path d="M282.41,249.947l14.718-.017V217.292h0a5.091,5.091,0,0,0-1.489-3.863l-5.867-5.867-5.867,5.867a5.091,5.091,0,0,0-1.5,3.61c0,.011,0,.022,0,.033Z" transform="translate(-121.17 -61.553)" fill="#fff"/><path d="M297.624,116.154a2.767,2.767,0,0,0,2-.817,2.763,2.763,0,0,0,0-3.966,2.832,2.832,0,0,0-3.995,0,2.78,2.78,0,0,0,0,3.966A2.745,2.745,0,0,0,297.624,116.154Zm-1.168-3.987a1.554,1.554,0,0,1,1.168-.5,1.572,1.572,0,0,1,1.183.5,1.663,1.663,0,0,1,.481,1.19,1.633,1.633,0,0,1-.481,1.191,1.594,1.594,0,0,1-1.183.488,1.575,1.575,0,0,1-1.168-.488,1.63,1.63,0,0,1-.481-1.191A1.66,1.66,0,0,1,296.456,112.167Z" transform="translate(-129.032)" fill="#fff"/><path d="M144.112,116.154a2.768,2.768,0,0,0,2-.817,2.764,2.764,0,0,0,0-3.966,2.832,2.832,0,0,0-3.995,0,2.78,2.78,0,0,0,0,3.966A2.744,2.744,0,0,0,144.112,116.154Zm-1.169-3.987a1.555,1.555,0,0,1,1.169-.5,1.573,1.573,0,0,1,1.183.5,1.663,1.663,0,0,1,.48,1.19,1.632,1.632,0,0,1-.48,1.191,1.6,1.6,0,0,1-1.183.488,1.576,1.576,0,0,1-1.169-.488,1.63,1.63,0,0,1-.481-1.191A1.66,1.66,0,0,1,142.944,112.167Z" transform="translate(-31.633)" fill="#fff"/><path d="M451.542,116.154H453.2c0,.363,0,.463,0,.618-.021.65-.127,2.084-1.251,2.281,0,0,2.46.23,2.428-2.143,0,0,0-3.835-.013-3.908a2.676,2.676,0,0,0-.817-1.63,2.84,2.84,0,0,0-4,0,2.762,2.762,0,0,0,0,3.966A2.768,2.768,0,0,0,451.542,116.154Zm-1.169-3.987a1.62,1.62,0,0,1,2.345,0,1.677,1.677,0,0,1,.473,1.19v1.678h-1.649a1.58,1.58,0,0,1-1.169-.488,1.632,1.632,0,0,1-.48-1.191A1.663,1.663,0,0,1,450.373,112.167Z" transform="translate(-226.679)" fill="#fff"/><rect width="0.689" height="0.795" transform="translate(135.722 203.439)" fill="#fff"/><rect width="0.697" height="0.795" transform="translate(134.623 203.439)" fill="#fff"/><rect width="0.689" height="0.787" transform="translate(139.952 209.752)" fill="#fff"/><rect width="0.697" height="0.787" transform="translate(138.853 209.752)" fill="#fff"/><rect width="0.689" height="0.787" transform="translate(148.978 209.752)" fill="#fff"/><rect width="0.697" height="0.787" transform="translate(147.88 209.752)" fill="#fff"/><path d="M231.092,370.022v-.7h-.934a2.66,2.66,0,0,1-.869-.156,3.976,3.976,0,0,0,.964-1.061,2.256,2.256,0,0,0,.373-1.07l.033-.623a5.189,5.189,0,0,0-1.045-.426,3.892,3.892,0,0,0-1.071-.156,3.794,3.794,0,0,0-1.061.156,5.036,5.036,0,0,0-1.029.426l.024.623a2.249,2.249,0,0,0,.373,1.07,4.032,4.032,0,0,0,.955,1.061,2.586,2.586,0,0,1-.86.156h-1.992v-5.14h-.779v5.14h-2.23v-3.4h-.779v3.4h-1.541a.645.645,0,0,1-.348-.094.729.729,0,0,1-.242-.242v-1.017a2.362,2.362,0,0,0-.463-1.631,2.005,2.005,0,0,0-1.529-.5,4.533,4.533,0,0,0-.84.074,3.311,3.311,0,0,0-.611.164,8.132,8.132,0,0,0-.164.881,7.528,7.528,0,0,0-.074,1.045,7.846,7.846,0,0,0,.115,1.32h-2.55v-3.4h-.778v3.4h-2.132v-3.386q-.287-.032-.918-.065t-.992-.033a2.8,2.8,0,0,0-1.173.2,1.207,1.207,0,0,0-.615.656,3.3,3.3,0,0,0-.188,1.234,3.191,3.191,0,0,0,.2,1.246,1.221,1.221,0,0,0,.631.648,2.939,2.939,0,0,0,1.189.2h10.9v-.336a.935.935,0,0,0,.279.242.626.626,0,0,0,.311.094h7.346a3.524,3.524,0,0,0,.811-.1,3.662,3.662,0,0,0,.771-.27,4.009,4.009,0,0,0,.791.27,3.615,3.615,0,0,0,.824.1Zm-21.857-.7h-1.008a1.932,1.932,0,0,1-.787-.131.794.794,0,0,1-.414-.435,2.218,2.218,0,0,1-.128-.836,2.172,2.172,0,0,1,.123-.807.8.8,0,0,1,.406-.435,1.8,1.8,0,0,1,.767-.135q.385,0,1.041.049Zm9.018,0h-2.017c-.028-.148-.053-.343-.078-.586a7.326,7.326,0,0,1-.037-.734,8.721,8.721,0,0,1,.123-1.394,3.213,3.213,0,0,1,.689-.073,1.331,1.331,0,0,1,1,.332,1.546,1.546,0,0,1,.315,1.086Zm10.3-.5a3.072,3.072,0,0,1-.963-.919,1.978,1.978,0,0,1-.349-1.1,3.934,3.934,0,0,1,1.312-.27,4.021,4.021,0,0,1,1.328.27,1.949,1.949,0,0,1-.352,1.095A3.207,3.207,0,0,1,228.551,368.825Z" transform="translate(-72.768 -160.926)" fill="#fff"/><rect width="0.697" height="0.795" transform="translate(159.038 203.439)" fill="#fff"/><rect width="0.689" height="0.795" transform="translate(160.137 203.439)" fill="#fff"/><path d="M279.447,364.185h-.778v5.14h-2.23v-3.4h-.779v3.4h-1.221v.7h5.009Z" transform="translate(-116.114 -160.926)" fill="#fff"/><rect width="0.779" height="5.837" transform="translate(164.76 203.259)" fill="#fff"/><path d="M333.448,363.312a.918.918,0,0,0-.18-.627.715.715,0,0,0-.6-.25.621.621,0,0,0-.5.185.7.7,0,0,0-.156.463,1.319,1.319,0,0,0,.123.549l-.484.131v.319l1.8-.352Zm-.451.09-.435.123a.9.9,0,0,1-.123-.418.235.235,0,0,1,.262-.271.277.277,0,0,1,.246.107.462.462,0,0,1,.073.27A.726.726,0,0,1,333,363.4Z" transform="translate(-152.414 -159.816)" fill="#fff"/><rect width="0.689" height="0.787" transform="translate(180.353 209.752)" fill="#fff"/><path d="M314.158,373.039v-4.1h-.779v3.4h-1.968V370.76a5.963,5.963,0,0,0-.078-.808q-.077-.529-.176-1.012l-.656.025q.131,1.222.131,1.8v1.582h-.787a.79.79,0,0,1-.328-.074,1.3,1.3,0,0,1-.279-.164,3.018,3.018,0,0,0,.106-.836V369.35h-.778v1.927a1.566,1.566,0,0,1-.168.763.563.563,0,0,1-.529.3H307.2V369.35h-.779v2.993h-2.435v-3.394h-.771v4.3a1.537,1.537,0,0,1-.188.828.619.619,0,0,1-.557.3c-.115,0-.262-.008-.443-.025v.689l.2.016a3.721,3.721,0,0,0,.41.024,1.135,1.135,0,0,0,1.017-.512,2.709,2.709,0,0,0,.336-1.48v-.049h4.14a1.033,1.033,0,0,0,.8-.328,1.4,1.4,0,0,0,.91.328h4.328Z" transform="translate(-133.617 -163.943)" fill="#fff"/><rect width="0.697" height="0.787" transform="translate(179.255 209.752)" fill="#fff"/><rect width="0.689" height="0.795" transform="translate(185.674 203.439)" fill="#fff"/><rect width="0.697" height="0.795" transform="translate(184.576 203.439)" fill="#fff"/><rect width="0.746" height="0.803" transform="translate(196.209 203.431)" fill="#fff"/><path d="M360.569,368.715a4.53,4.53,0,0,0-.84.074,3.322,3.322,0,0,0-.611.164,8.234,8.234,0,0,0-.164.881,7.587,7.587,0,0,0-.074,1.045,7.855,7.855,0,0,0,.115,1.32h-2.55v-3.4h-.779v3.4H353.7v-1.361a2.592,2.592,0,0,0-.431-1.488,1.638,1.638,0,0,0-1.463-.635,2.25,2.25,0,0,0-.927.18,2.475,2.475,0,0,0-.7.468,8,8,0,0,0-.668.746V368.8h-.771v3.4h-2.074v-3.386q-.287-.032-.918-.065t-.992-.033a2.8,2.8,0,0,0-1.172.2,1.206,1.206,0,0,0-.615.656,3.3,3.3,0,0,0-.188,1.234,3.19,3.19,0,0,0,.2,1.246,1.219,1.219,0,0,0,.631.648,2.936,2.936,0,0,0,1.189.2h17.766v-2.05a2.362,2.362,0,0,0-.463-1.631A2.006,2.006,0,0,0,360.569,368.715ZM345.893,372.2h-1.008a1.934,1.934,0,0,1-.787-.131.8.8,0,0,1-.414-.435,2.228,2.228,0,0,1-.127-.836,2.156,2.156,0,0,1,.123-.807.8.8,0,0,1,.405-.435,1.8,1.8,0,0,1,.766-.135q.385,0,1.041.049Zm7.034,0h-3.419v-1.107q1.049-1.681,2.173-1.681a1.069,1.069,0,0,1,.926.447,1.86,1.86,0,0,1,.32,1.111Zm8.854,0h-2.016q-.042-.222-.078-.586a7.211,7.211,0,0,1-.037-.734,8.723,8.723,0,0,1,.123-1.394,3.211,3.211,0,0,1,.689-.073,1.332,1.332,0,0,1,1,.332,1.548,1.548,0,0,1,.315,1.086Z" transform="translate(-159.473 -163.8)" fill="#fff"/><path d="M212.662,400.18l-1.845-3.474h-.932l2.369,4.3v3.12h.825v-3.12l2.359-4.3h-.932Z" transform="translate(-75.157 -181.56)" fill="#fff"/><path d="M229.005,406.69a3.272,3.272,0,0,1-1.5.4,1.147,1.147,0,0,1-.7-.172.941.941,0,0,1-.311-.579,6.321,6.321,0,0,1-.086-1.211v-2.787h-.8v2.8a6.617,6.617,0,0,0,.15,1.6,1.366,1.366,0,0,0,.521.82,1.866,1.866,0,0,0,1.056.252,3.005,3.005,0,0,0,.858-.112,3.831,3.831,0,0,0,.815-.37v.375h.8v-5.361h-.8Z" transform="translate(-85.131 -185.133)" fill="#fff"/><path d="M243.859,404.717a4.973,4.973,0,0,0-1.03-.274l-.268-.053a6.589,6.589,0,0,1-.68-.145.871.871,0,0,1-.392-.225.616.616,0,0,1-.15-.445.66.66,0,0,1,.305-.6,1.768,1.768,0,0,1,.928-.193,13.186,13.186,0,0,1,1.812.171l.021-.686-.3-.053a8.984,8.984,0,0,0-1.554-.139,2.6,2.6,0,0,0-1.491.364,1.4,1.4,0,0,0-.525,1.233,1.353,1.353,0,0,0,.182.756,1.169,1.169,0,0,0,.547.423,4.814,4.814,0,0,0,1.008.257l.268.043a4.809,4.809,0,0,1,.681.139.878.878,0,0,1,.4.247.729.729,0,0,1,.155.5.744.744,0,0,1-.316.67,1.764,1.764,0,0,1-.96.209,14.313,14.313,0,0,1-1.844-.182l-.043.7.321.054a10.228,10.228,0,0,0,1.576.15,2.5,2.5,0,0,0,1.56-.4,1.521,1.521,0,0,0,.509-1.27,1.547,1.547,0,0,0-.177-.8A1.133,1.133,0,0,0,243.859,404.717Z" transform="translate(-94.603 -184.966)" fill="#fff"/><path d="M258.218,406.69a3.275,3.275,0,0,1-1.5.4,1.147,1.147,0,0,1-.7-.172.939.939,0,0,1-.311-.579,6.32,6.32,0,0,1-.086-1.211v-2.787h-.8v2.8a6.6,6.6,0,0,0,.149,1.6,1.365,1.365,0,0,0,.521.82,1.866,1.866,0,0,0,1.056.252,3.006,3.006,0,0,0,.858-.112,3.832,3.832,0,0,0,.815-.37v.375h.8v-5.361h-.8Z" transform="translate(-103.666 -185.133)" fill="#fff"/><path d="M271.333,402.133h-.793v5.36h.8v-3.935l.268-.14a6.658,6.658,0,0,1,.777-.327,6.548,6.548,0,0,1,.906-.263v-.815a5.352,5.352,0,0,0-1.962.847Z" transform="translate(-113.64 -184.928)" fill="#fff"/><path d="M290.234,396.706h-2.712v7.419h.825v-2.5h1.887q2.37,0,2.369-2.531a2.475,2.475,0,0,0-.579-1.806A2.425,2.425,0,0,0,290.234,396.706Zm-.011,4.192h-1.877v-3.463h1.877a1.518,1.518,0,0,1,1.168.4,1.829,1.829,0,0,1,.365,1.265Q291.757,400.9,290.224,400.9Z" transform="translate(-124.415 -181.56)" fill="#fff"/><rect width="0.804" height="7.698" transform="translate(169.39 214.867)" fill="#fff"/><path d="M314.5,406.515V403.77a1.491,1.491,0,0,0-1.737-1.726,10.466,10.466,0,0,0-2.091.236l.032.611a19.439,19.439,0,0,1,2.112-.139q.878,0,.879,1.018v.461l-1.683.161a2.068,2.068,0,0,0-1.249.461,1.52,1.52,0,0,0-.391,1.147,1.707,1.707,0,0,0,.385,1.2,1.456,1.456,0,0,0,1.126.418,4.675,4.675,0,0,0,1.93-.429,1.73,1.73,0,0,0,1.275.429l.032-.633Q314.531,406.912,314.5,406.515Zm-.8.1-.246.086a4.4,4.4,0,0,1-1.437.247q-.815,0-.815-.987a.989.989,0,0,1,.215-.686,1.033,1.033,0,0,1,.7-.279l1.586-.15Z" transform="translate(-138.912 -184.947)" fill="#fff"/><path d="M327.01,404.25a.633.633,0,0,1-.728-.606,6.729,6.729,0,0,1-.043-.9v-2.562h1.7v-.7h-1.7V397.85h-.793v1.641h-.761v.7h.761v2.82a4.093,4.093,0,0,0,.134,1.185,1,1,0,0,0,.44.6,1.714,1.714,0,0,0,.852.177,8.26,8.26,0,0,0,1.147-.118l-.054-.665Z" transform="translate(-147.993 -182.286)" fill="#fff"/><path d="M336.331,395.827a1.017,1.017,0,0,0-.45.6,3.957,3.957,0,0,0-.139,1.185v.483h-.675v.7h.675v4.664h.8v-4.664H338.1v-.7h-1.555v-.472a2.4,2.4,0,0,1,.145-.943.539.539,0,0,1,.541-.322l.2.005.831.027.011-.665-1.083-.075A1.741,1.741,0,0,0,336.331,395.827Z" transform="translate(-154.58 -180.89)" fill="#fff"/><path d="M348.738,402.333a2.676,2.676,0,0,0-1.346-.29,2.728,2.728,0,0,0-1.34.284,1.629,1.629,0,0,0-.729.9,4.884,4.884,0,0,0-.225,1.635,4.826,4.826,0,0,0,.214,1.587,1.582,1.582,0,0,0,.718.885,3.419,3.419,0,0,0,2.728,0,1.588,1.588,0,0,0,.713-.885,6,6,0,0,0-.011-3.217A1.661,1.661,0,0,0,348.738,402.333Zm0,3.758a1.056,1.056,0,0,1-.434.632,1.685,1.685,0,0,1-.9.2,1.736,1.736,0,0,1-.917-.2,1.052,1.052,0,0,1-.44-.638,6.17,6.17,0,0,1,.011-2.508,1.068,1.068,0,0,1,.45-.643,1.727,1.727,0,0,1,.9-.193,1.7,1.7,0,0,1,.89.193,1.055,1.055,0,0,1,.44.643,4.947,4.947,0,0,1,.129,1.286A4.743,4.743,0,0,1,348.738,406.091Z" transform="translate(-160.945 -184.947)" fill="#fff"/><path d="M362.022,402.133h-.793v5.36h.8v-3.935l.268-.14a6.668,6.668,0,0,1,.777-.327,6.53,6.53,0,0,1,.906-.263v-.815a5.351,5.351,0,0,0-1.962.847Z" transform="translate(-171.18 -184.928)" fill="#fff"/><path d="M378.174,402.307a1.719,1.719,0,0,0-1.019-.263,3.9,3.9,0,0,0-1.094.156,4,4,0,0,0-.932.391,1.2,1.2,0,0,0-.557-.413,2.222,2.222,0,0,0-.793-.134,3.1,3.1,0,0,0-1.609.483v-.375h-.793v5.36h.8v-4.353l.182-.1a2.706,2.706,0,0,1,.59-.209,2.972,2.972,0,0,1,.718-.091,1.059,1.059,0,0,1,.675.182.994.994,0,0,1,.311.6,6.334,6.334,0,0,1,.086,1.206v2.766h.8v-2.788a5.315,5.315,0,0,0-.139-1.565l.2-.1a2.961,2.961,0,0,1,.612-.209,3.144,3.144,0,0,1,.74-.091,1.084,1.084,0,0,1,.681.182.977.977,0,0,1,.317.59,6.094,6.094,0,0,1,.086,1.169v2.809h.8v-2.83a6.093,6.093,0,0,0-.156-1.544A1.451,1.451,0,0,0,378.174,402.307Z" transform="translate(-177.618 -184.947)" fill="#fff"/></g></svg>